<svg id="Warstwa_1" data-name="Warstwa 1" xmlns="http://www.w3.org/2000/svg" xmlns:xlink="http://www.w3.org/1999/xlink" viewBox="0 0 77.92 60"><defs><style>.cls-1{fill:none;}.cls-2{clip-path:url(#clip-path);}.cls-3{fill:#ffc929;}.cls-4{fill:#36393c;}.cls-5{fill:#fff;}.cls-6{fill:#684491;}</style><clipPath id="clip-path"><rect class="cls-1" x="-0.42" y="-0.5" width="78.77" height="61"/></clipPath></defs><g class="cls-2"><rect class="cls-3" x="0.01" y="-0.06" width="77.82" height="46.93"/><g class="cls-2"><path class="cls-4" d="M40.64,29.59H38.87V24.5c0-1.08-.47-1.65-1.33-1.72a8.39,8.39,0,0,0-2,.22v6.59H33.77V21.74a22,22,0,0,1,4.1-.48,2.76,2.76,0,0,1,2,.81,2.84,2.84,0,0,1,.75,2.1Z"/><path class="cls-4" d="M70.54,29.64a3.37,3.37,0,0,1-.9.12,2.38,2.38,0,0,1-2-.67,3.67,3.67,0,0,1-.38-2V18.93H69v2.31h1.55v1.43H69V27a1.56,1.56,0,0,0,.18.92,1.07,1.07,0,0,0,.89.29l.45,0Z"/><path class="cls-5" d="M15.77,24.27a14.2,14.2,0,0,1-4.64.81,14.2,14.2,0,0,1-4.64-.81,14.36,14.36,0,0,1,4.64-.8,14.36,14.36,0,0,1,4.64.8"/><path class="cls-5" d="M22.18,12.47a13.91,13.91,0,0,1-3.27-3.32A13.48,13.48,0,0,1,17,4.94a13.68,13.68,0,0,1,3.27,3.32,13.76,13.76,0,0,1,1.92,4.21"/><path class="cls-5" d="M17.48,17.57A14.28,14.28,0,0,1,13,16.14,14.07,14.07,0,0,1,9.29,13.3a14.1,14.1,0,0,1,4.48,1.42,14,14,0,0,1,3.71,2.85"/><path class="cls-5" d="M22,28.14a6.71,6.71,0,0,0,2.91-1.05S21.18,26,21.41,22.67A12.16,12.16,0,0,1,32,12.32a13,13,0,0,0-1.78-.12,12.06,12.06,0,1,0,.11,24.11A11.52,11.52,0,0,0,32,36.19a12.22,12.22,0,0,1-10.15-8.33"/><path class="cls-5" d="M22.18,36a13.91,13.91,0,0,0-3.27,3.32A13.48,13.48,0,0,0,17,43.57a13.91,13.91,0,0,0,3.27-3.32A13.76,13.76,0,0,0,22.18,36"/><path class="cls-5" d="M17.48,30.94A13.6,13.6,0,0,0,9.29,35.2a14.1,14.1,0,0,0,4.48-1.42,14.07,14.07,0,0,0,3.71-2.84"/><rect class="cls-4" x="30.21" y="18.93" width="1.81" height="10.66"/><path class="cls-4" d="M50.15,22.57a3.51,3.51,0,0,1-1,2.63,3.75,3.75,0,0,1-2.74,1H44.2v3.37H42.4V18.9h3.87a3.93,3.93,0,0,1,2.88,1,3.56,3.56,0,0,1,1,2.69m-1.82,0a1.7,1.7,0,0,0-1.9-1.94H44.2v3.84h2.2a1.92,1.92,0,0,0,1.42-.5,1.87,1.87,0,0,0,.51-1.4"/><path class="cls-4" d="M58.52,25.36a4.42,4.42,0,0,1-1.08,3.1,3.91,3.91,0,0,1-5.58,0,4.42,4.42,0,0,1-1.08-3.1,4.38,4.38,0,0,1,1.08-3.09,3.92,3.92,0,0,1,5.59,0,4.37,4.37,0,0,1,1.07,3.09m-1.83,0a3,3,0,0,0-.56-1.91,1.79,1.79,0,0,0-1.48-.71,1.77,1.77,0,0,0-1.48.72,3,3,0,0,0-.56,1.9,3,3,0,0,0,.56,1.91,1.91,1.91,0,0,0,3,0,3,3,0,0,0,.56-1.91"/><path class="cls-4" d="M66.22,26.84a2.45,2.45,0,0,1-.94,2,3.74,3.74,0,0,1-2.48.78,4.8,4.8,0,0,1-3.71-1.43L60.44,27a3.24,3.24,0,0,0,2.35,1,2.06,2.06,0,0,0,1.18-.3.86.86,0,0,0,.44-.73.69.69,0,0,0-.51-.7A9.63,9.63,0,0,0,62.35,26a5.34,5.34,0,0,1-2.17-.66,1.85,1.85,0,0,1-.76-1.62,2.27,2.27,0,0,1,.92-1.84,3.86,3.86,0,0,1,2.46-.74A4.5,4.5,0,0,1,66,22.36l-1,1.11a3.23,3.23,0,0,0-2.18-.84c-1,0-1.55.29-1.55.87,0,.34.24.57.71.7l2,.33c1.55.29,2.32,1.06,2.32,2.31"/><rect class="cls-6" x="0.01" y="46.86" width="77.82" height="13.2"/><path class="cls-5" d="M6.9,53c0,1.13-.84,1.83-2.19,1.83H3.55v1.48H2.6V51.18H4.71c1.35,0,2.19.69,2.19,1.83m-1,0c0-.64-.44-1-1.27-1H3.55v2H4.67c.83,0,1.27-.37,1.27-1"/><path class="cls-5" d="M11,54v2.3h-.87v-.48a1.39,1.39,0,0,1-1.23.53c-.9,0-1.46-.49-1.46-1.17S7.89,54,9.08,54h1V54c0-.53-.33-.85-1-.85a2,2,0,0,0-1.19.39l-.36-.67a2.78,2.78,0,0,1,1.66-.48c1.13,0,1.79.53,1.79,1.66m-.92,1.07v-.45H9.14c-.62,0-.79.23-.79.52s.28.54.75.54a1,1,0,0,0,1-.61"/><path class="cls-5" d="M11.89,54.36a2,2,0,0,1,2.12-2,1.75,1.75,0,0,1,1.67.91l-.7.41a1.11,1.11,0,0,0-1-.54,1.23,1.23,0,0,0,0,2.45A1.1,1.1,0,0,0,15,55l.7.41a1.78,1.78,0,0,1-1.67.92,2,2,0,0,1-2.12-2"/><polygon class="cls-5" points="19.5 55.59 19.5 56.32 16.12 56.32 16.12 55.74 18.27 53.14 16.16 53.14 16.16 52.4 19.44 52.4 19.44 52.98 17.28 55.59 19.5 55.59"/><polygon class="cls-5" points="21.94 54.64 21.26 55.28 21.26 56.32 20.34 56.32 20.34 50.88 21.26 50.88 21.26 54.16 23.16 52.4 24.26 52.4 22.62 54.05 24.41 56.32 23.3 56.32 21.94 54.64"/><path class="cls-5" d="M28.21,54v2.3h-.86v-.48a1.39,1.39,0,0,1-1.24.53c-.89,0-1.46-.49-1.46-1.17S25.09,54,26.28,54h1V54c0-.53-.33-.85-1-.85a2,2,0,0,0-1.19.39l-.36-.67a2.78,2.78,0,0,1,1.66-.48c1.13,0,1.78.53,1.78,1.66m-.91,1.07v-.45h-.95c-.62,0-.79.23-.79.52s.28.54.74.54a1,1,0,0,0,1-.61"/><polygon class="cls-5" points="37.52 52.4 36.08 56.32 35.2 56.32 34.18 53.62 33.16 56.32 32.27 56.32 30.84 52.4 31.7 52.4 32.74 55.29 33.81 52.4 34.59 52.4 35.64 55.31 36.71 52.4 37.52 52.4"/><polygon class="cls-5" points="47.77 51.19 46.06 56.32 45.05 56.32 43.78 52.52 42.49 56.32 41.47 56.32 39.77 51.19 40.76 51.19 42.04 55.09 43.37 51.19 44.25 51.19 45.55 55.11 46.86 51.19 47.77 51.19"/><path class="cls-5" d="M51.83,54.65H48.76a1.18,1.18,0,0,0,1.27.94,1.42,1.42,0,0,0,1.06-.42l.49.56a2.2,2.2,0,0,1-3.74-1.37,1.94,1.94,0,0,1,2-2,1.91,1.91,0,0,1,2,2,2.45,2.45,0,0,1,0,.27m-3.08-.6H51a1.06,1.06,0,0,0-1.11-1,1.08,1.08,0,0,0-1.11,1"/><path class="cls-5" d="M56.39,54.65H53.32a1.18,1.18,0,0,0,1.27.94,1.42,1.42,0,0,0,1.06-.42l.49.56a2.2,2.2,0,0,1-3.74-1.37,2,2,0,0,1,2-2,1.91,1.91,0,0,1,2,2,2.45,2.45,0,0,1,0,.27m-3.08-.6h2.22a1.06,1.06,0,0,0-1.1-1,1.08,1.08,0,0,0-1.12,1"/><polygon class="cls-5" points="58.89 54.64 58.2 55.28 58.2 56.32 57.29 56.32 57.29 50.88 58.2 50.88 58.2 54.16 60.1 52.4 61.2 52.4 59.57 54.05 61.36 56.32 60.24 56.32 58.89 54.64"/><path class="cls-5" d="M65.46,54.65H62.38a1.18,1.18,0,0,0,1.27.94,1.44,1.44,0,0,0,1.07-.42l.49.56a2.2,2.2,0,0,1-3.74-1.37,1.94,1.94,0,0,1,2-2,1.91,1.91,0,0,1,2,2,2.44,2.44,0,0,1,0,.27m-3.08-.6H64.6a1.07,1.07,0,0,0-1.11-1,1.08,1.08,0,0,0-1.11,1"/><path class="cls-5" d="M70.21,54.08v2.24h-.92V54.19c0-.69-.34-1-.93-1a1,1,0,0,0-1.09,1.18v2h-.92V52.4h.88v.51a1.69,1.69,0,0,1,1.35-.55,1.53,1.53,0,0,1,1.63,1.72"/><path class="cls-5" d="M75.25,50.88v5.44h-.88v-.51a1.6,1.6,0,0,1-1.3.56,2,2,0,0,1,0-4,1.58,1.58,0,0,1,1.26.53v-2Zm-.9,3.48a1.17,1.17,0,1,0-1.17,1.23,1.14,1.14,0,0,0,1.17-1.23"/></g></g></svg>